# xmcd
#
# Track frame offsets: 
#        150
#        25893
#        38854
#        52795
#        64996
#        74985
#        87192
#        99542
#        116044
#        134307
#        148270
#        160620
#
# Disc length: 2280 seconds
#
# Revision: 0
# Processed by: cddbd v1.5.2PL0 Copyright (c) Steve Scherf et al.
# Submitted via: ExactAudioCopyFreeDBPlugin 1.0
#
DISCID=ad08e60c
DTITLE=multiple voice - multiple voice
DYEAR=2012
DGENRE=A Cappella
TTITLE0=Hallelujah
TTITLE1=Lonesome Road
TTITLE2=Kinder
TTITLE3=LaLeLu
TTITLE4=Once upon
TTITLE5=Shall I Compare
TTITLE6=Mad World
TTITLE7=Paris
TTITLE8=Lullabye
TTITLE9=Tears in Heaven
TTITLE10=Air
TTITLE11=Heidi (Bonus track)
EXTD=
EXTT0=
EXTT1=
EXTT2=
EXTT3=
EXTT4=
EXTT5=
EXTT6=
EXTT7=
EXTT8=
EXTT9=
EXTT10=
EXTT11=
PLAYORDER=
